<?xml version="1.0" standalone="no"?>
<!DOCTYPE svg PUBLIC "-//W3C//DTD SVG 20010904//EN"
 "http://www.w3.org/TR/2001/REC-SVG-20010904/DTD/svg10.dtd">
<svg version="1.0" xmlns="http://www.w3.org/2000/svg"
 width="3544.000000pt" height="3544.000000pt" viewBox="0 0 3544.000000 3544.000000"
 preserveAspectRatio="xMidYMid meet">
<metadata>
Created by potrace 1.11, written by Peter Selinger 2001-2013
</metadata>
<g transform="translate(0.000000,3544.000000) scale(0.100000,-0.100000)"
fill="#000000" stroke="none">
<path d="M15339 31592 c-119 -88 -191 -140 -267 -194 -29 -21 -58 -43 -65 -48
-11 -10 -430 -316 -526 -384 -42 -30 -286 -208 -306 -224 -5 -4 -44 -32 -85
-62 -216 -158 -347 -256 -360 -271 -13 -16 -121 -96 -495 -366 -66 -48 -125
-92 -132 -98 -15 -13 -270 -197 -291 -210 -9 -5 -22 -15 -29 -22 -7 -7 -83
-63 -169 -125 -334 -242 -444 -322 -1189 -867 -154 -113 -372 -272 -485 -354
-113 -83 -230 -168 -261 -191 -30 -23 -66 -49 -80 -59 -13 -9 -130 -94 -259
-188 -129 -95 -334 -244 -455 -332 -121 -88 -251 -184 -290 -212 -38 -29 -142
-105 -230 -169 -198 -143 -178 -129 -310 -226 -60 -45 -119 -87 -130 -95 -100
-73 -536 -390 -555 -405 -14 -11 -137 -101 -275 -201 -137 -100 -286 -208
-330 -241 -44 -33 -89 -66 -100 -74 -11 -8 -105 -76 -208 -152 -103 -75 -216
-157 -251 -182 -81 -58 -324 -235 -356 -260 -14 -11 -95 -70 -180 -131 -85
-62 -159 -116 -165 -121 -5 -5 -58 -44 -117 -86 -58 -42 -211 -153 -339 -247
-128 -93 -254 -185 -281 -204 l-48 -35 0 -8384 c0 -4612 3 -8382 6 -8379 4 3
14 2 24 -3 9 -5 28 -11 41 -14 13 -2 74 -19 134 -36 61 -18 121 -34 134 -36
13 -3 31 -9 40 -13 9 -5 21 -10 26 -10 6 -1 28 -6 50 -12 22 -6 47 -13 55 -14
8 -2 16 -4 18 -5 1 -2 5 -3 10 -4 4 -2 27 -8 52 -15 25 -7 52 -15 60 -17 8 -2
56 -15 105 -29 50 -14 97 -28 105 -30 8 -2 47 -12 85 -23 186 -54 221 -64 235
-67 9 -2 54 -14 100 -28 77 -23 126 -36 156 -42 6 -2 51 -15 100 -29 157 -47
362 -104 394 -111 8 -2 27 -8 42 -14 16 -6 28 -9 28 -6 0 2 16 -3 35 -11 19
-8 35 -12 35 -9 0 2 12 0 28 -6 15 -6 34 -12 42 -14 8 -2 62 -17 120 -34 96
-27 180 -51 205 -57 6 -1 75 -21 155 -44 80 -23 152 -43 160 -45 8 -2 73 -20
144 -40 70 -20 136 -39 145 -40 9 -2 16 -4 16 -5 0 -1 7 -3 15 -5 18 -5 51
-14 195 -55 61 -17 118 -33 128 -35 10 -2 55 -15 100 -28 93 -28 304 -87 327
-92 20 -5 322 -91 385 -110 28 -8 61 -18 75 -21 14 -3 30 -6 35 -7 6 -2 16 -6
23 -10 6 -5 12 -6 12 -3 0 3 12 1 28 -5 15 -6 50 -17 77 -24 174 -48 319 -88
375 -105 36 -11 74 -22 85 -25 11 -2 54 -14 95 -26 100 -28 211 -59 230 -63 8
-3 27 -9 43 -15 15 -6 27 -9 27 -6 0 2 19 -2 41 -11 23 -8 51 -16 63 -18 12
-3 58 -16 104 -29 45 -14 85 -25 87 -26 7 -2 14 -3 23 -6 4 -1 21 -5 37 -9 17
-5 49 -14 72 -22 23 -7 52 -16 65 -18 13 -3 104 -28 203 -56 99 -29 187 -53
195 -55 8 -2 74 -20 145 -41 72 -20 137 -38 145 -39 8 -2 15 -4 15 -5 0 -1 7
-3 15 -5 8 -2 80 -22 160 -45 80 -23 156 -44 169 -46 13 -3 31 -9 40 -13 9 -5
18 -9 21 -9 5 1 72 -17 175 -47 77 -22 448 -126 465 -131 20 -5 67 -18 160
-44 41 -11 83 -23 93 -25 9 -2 21 -6 25 -9 5 -3 19 -7 33 -9 13 -3 81 -21 150
-41 69 -20 135 -39 145 -41 10 -3 60 -16 109 -30 50 -14 97 -28 105 -30 8 -2
112 -32 230 -65 118 -34 222 -63 230 -65 8 -2 53 -15 100 -28 47 -13 99 -28
115 -32 17 -5 35 -9 40 -11 10 -2 142 -40 240 -69 28 -8 70 -20 95 -26 55 -15
46 -13 100 -28 25 -7 53 -15 62 -16 10 -2 22 -6 26 -9 5 -3 19 -7 33 -10 29
-6 218 -59 309 -87 36 -10 74 -21 85 -24 11 -2 76 -20 145 -40 69 -19 134 -37
145 -39 11 -3 21 -5 23 -7 1 -1 5 -2 10 -3 4 -1 23 -7 42 -13 36 -12 295 -84
314 -87 6 -2 31 -9 56 -16 25 -7 50 -14 55 -16 6 -1 42 -11 80 -22 78 -23 147
-42 155 -41 3 0 19 -5 35 -11 17 -7 39 -14 50 -16 32 -8 37 -9 100 -28 33 -10
65 -19 70 -20 6 -1 37 -10 70 -20 33 -10 67 -20 75 -21 8 -2 36 -10 63 -18 26
-8 47 -13 47 -11 0 3 8 0 18 -5 11 -6 30 -12 43 -15 13 -3 49 -12 79 -21 30
-9 78 -22 105 -30 28 -7 109 -30 180 -50 72 -20 137 -38 145 -40 8 -2 27 -8
43 -14 15 -6 27 -8 27 -5 0 2 8 0 19 -5 10 -6 33 -13 51 -16 18 -3 41 -10 51
-16 11 -5 19 -7 19 -4 0 3 8 1 19 -4 10 -6 32 -13 50 -16 17 -3 50 -12 74 -19
23 -8 94 -28 157 -45 63 -18 126 -36 140 -41 14 -5 36 -11 50 -14 14 -2 37 -9
53 -15 15 -6 27 -9 27 -6 0 2 26 -5 57 -16 32 -11 67 -21 78 -23 12 -2 54 -14
94 -26 41 -12 82 -23 92 -25 11 -2 23 -6 27 -9 5 -3 19 -7 33 -10 13 -3 58
-15 99 -26 41 -11 82 -22 90 -24 8 -3 27 -9 43 -15 15 -6 27 -8 27 -6 0 2 12
0 28 -6 22 -9 106 -33 147 -43 6 -1 28 -8 50 -14 60 -18 256 -73 274 -78 16
-3 175 -48 197 -55 10 -4 229 154 774 555 248 182 295 217 315 232 120 87 192
140 202 148 6 6 69 53 140 103 151 109 873 638 888 651 6 4 44 33 85 62 41 30
80 58 85 63 6 4 55 40 110 81 201 146 482 352 545 399 36 26 142 104 235 172
94 68 175 128 180 132 6 5 35 26 65 48 30 22 125 91 210 154 85 63 191 140
235 172 44 32 85 62 90 67 6 4 111 82 235 172 124 90 245 179 270 197 25 18
50 37 55 41 6 4 26 19 45 32 19 14 37 28 40 31 3 3 106 79 230 169 124 90 266
193 315 230 50 37 169 124 265 195 203 148 235 172 510 374 113 83 277 204
365 268 149 108 256 187 280 206 5 4 42 31 80 58 39 28 81 59 95 70 14 10 106
78 205 150 99 72 203 148 230 169 28 20 120 88 205 150 85 63 198 145 250 183
52 38 113 83 134 100 25 19 41 26 44 19 3 -9 106 60 187 126 6 4 42 31 80 60
39 28 75 55 80 60 11 9 539 404 570 427 18 12 203 152 230 172 6 5 82 62 170
128 88 66 165 124 172 130 6 5 56 43 111 83 55 40 102 78 104 85 2 7 4 3778 4
8382 l-1 8369 -45 13 c-48 15 -142 41 -175 49 -26 7 -37 10 -55 16 -16 6 -92
27 -119 33 -9 3 -41 11 -71 20 -30 9 -66 18 -79 21 -14 3 -28 7 -33 10 -6 4
-113 34 -178 50 -17 4 -84 23 -185 53 -38 12 -81 23 -95 26 -14 2 -36 9 -50
14 -21 8 -57 18 -95 26 -5 2 -43 13 -84 25 -41 12 -81 23 -90 25 -9 2 -50 14
-91 25 -41 12 -82 23 -90 25 -8 2 -96 27 -195 55 -99 28 -184 52 -190 54 -5 1
-26 7 -45 14 -19 6 -46 14 -60 17 -14 2 -65 16 -115 30 -49 14 -98 28 -108 30
-9 2 -21 6 -25 9 -5 3 -19 7 -33 10 -13 2 -73 18 -134 36 -104 30 -202 57
-235 65 -8 2 -55 16 -105 30 -103 30 -96 28 -195 55 -41 11 -89 25 -106 30
-17 6 -40 12 -50 14 -10 3 -84 23 -164 46 -141 41 -155 45 -202 55 -13 3 -34
9 -48 14 -20 8 -163 49 -270 77 -8 2 -40 11 -70 19 -30 9 -62 18 -70 20 -8 2
-64 18 -125 35 -145 41 -218 62 -230 64 -5 2 -36 10 -67 20 -31 9 -69 19 -84
22 -15 3 -31 7 -36 10 -4 3 -16 7 -25 9 -10 2 -58 16 -108 30 -49 14 -97 28
-105 29 -8 2 -35 10 -60 17 -25 7 -49 14 -55 15 -5 2 -41 12 -80 23 -38 12
-79 23 -90 26 -11 2 -45 11 -75 20 -65 19 -118 34 -144 40 -10 2 -33 9 -51 15
-18 6 -41 13 -51 15 -10 2 -44 11 -74 20 -30 9 -62 18 -70 20 -8 2 -64 18
-125 35 -60 18 -121 34 -134 36 -13 3 -34 10 -45 16 -12 6 -21 10 -21 9 0 -4
-55 11 -230 60 -169 47 -189 53 -285 80 -41 11 -105 29 -141 40 -37 11 -79 22
-94 25 -16 3 -38 10 -49 16 -12 6 -21 10 -21 9 0 -2 -20 2 -45 9 -25 7 -56 14
-69 17 -14 2 -29 6 -33 9 -7 5 -202 60 -363 104 -16 4 -88 24 -160 44 -153 43
-140 40 -235 66 -41 11 -95 27 -120 35 -25 8 -54 16 -65 18 -11 2 -46 12 -79
21 -32 10 -64 19 -70 20 -6 1 -38 10 -71 20 -33 10 -71 20 -84 23 -14 2 -28 6
-33 9 -4 3 -16 7 -25 9 -10 2 -56 15 -103 28 -47 13 -94 27 -105 30 -11 3 -94
26 -185 52 -91 25 -173 48 -183 50 -10 2 -32 9 -50 15 -45 15 -287 81 -316 87
-14 2 -29 7 -34 10 -5 3 -41 14 -81 25 -97 26 -74 19 -336 93 -129 37 -251 71
-270 76 -19 5 -42 11 -50 14 -8 2 -96 27 -195 55 -99 29 -188 54 -197 56 -34
8 -53 13 -101 28 -26 8 -49 15 -52 16 -3 0 -10 2 -17 5 -7 2 -62 17 -123 34
-60 16 -130 35 -155 42 -25 7 -49 13 -55 15 -5 1 -48 13 -95 27 -81 23 -139
39 -150 41 -3 1 -23 7 -45 14 -36 11 -307 87 -345 97 -8 2 -64 18 -125 35 -60
17 -117 33 -125 34 -8 2 -78 22 -156 45 -130 37 -308 87 -344 96 -8 2 -27 8
-42 14 -16 6 -28 8 -28 6 0 -2 -12 0 -27 6 -16 6 -35 12 -44 14 -9 2 -49 13
-90 25 -40 12 -84 24 -98 27 -13 2 -34 9 -45 15 -12 6 -23 11 -26 10 -3 -1
-23 3 -45 9 -22 6 -47 13 -55 15 -8 1 -64 17 -125 34 -60 18 -117 33 -125 35
-8 2 -69 20 -135 39 -119 35 -271 76 -290 80 -5 1 -16 5 -22 9 -7 5 -13 6 -13
2 0 -3 -8 -1 -18 4 -11 6 -30 12 -43 14 -14 3 -58 15 -98 27 -41 12 -83 24
-95 26 -12 2 -32 8 -46 13 -20 8 -136 41 -200 56 -8 2 -40 11 -70 20 -30 9
-87 25 -127 35 -39 11 -83 24 -97 30 -14 5 -26 7 -26 4 0 -2 -8 0 -18 5 -11 6
-30 12 -43 15 -53 12 -97 24 -106 29 -6 4 -57 -28 -114 -71z m896 -1893 c39
-11 77 -22 85 -24 8 -2 56 -16 105 -30 50 -14 101 -28 114 -31 14 -3 28 -7 33
-10 4 -3 16 -7 25 -9 10 -2 88 -24 173 -49 85 -26 164 -48 175 -50 11 -3 44
-12 74 -21 30 -9 62 -18 70 -20 9 -2 57 -16 106 -30 50 -15 97 -28 105 -30 8
-2 27 -8 43 -14 15 -6 27 -9 27 -6 0 2 15 -2 34 -10 18 -8 48 -17 67 -20 18
-3 36 -8 41 -11 4 -3 16 -7 25 -9 10 -2 41 -11 68 -19 28 -8 91 -26 140 -39
50 -14 101 -30 115 -35 14 -5 30 -10 35 -11 6 0 35 -8 65 -17 30 -9 62 -18 70
-19 8 -2 47 -13 85 -25 131 -39 170 -50 190 -55 11 -2 83 -23 160 -45 142 -42
194 -57 230 -65 11 -3 31 -9 45 -14 22 -8 44 -14 85 -22 6 -1 25 -8 43 -16 17
-7 32 -11 32 -8 0 2 12 0 28 -6 15 -6 34 -12 42 -14 8 -2 42 -11 75 -21 33
-10 62 -18 65 -19 3 -1 32 -9 65 -19 33 -10 69 -20 80 -22 11 -2 31 -8 45 -13
25 -10 132 -40 160 -46 8 -2 29 -8 45 -15 17 -6 32 -11 35 -11 3 1 30 -6 60
-15 30 -9 62 -18 70 -19 8 -2 46 -13 84 -25 38 -12 76 -23 85 -25 9 -2 30 -8
46 -15 17 -6 30 -10 30 -9 0 1 27 -6 60 -16 33 -9 69 -19 80 -22 25 -5 36 -9
55 -16 14 -5 110 -32 410 -117 74 -21 191 -55 260 -75 69 -20 141 -41 160 -46
38 -10 38 -10 120 -34 30 -9 64 -18 75 -20 11 -3 31 -9 45 -14 22 -8 68 -20
87 -22 5 -1 24 -7 43 -14 32 -12 74 -23 92 -25 5 0 25 -7 45 -15 21 -8 65 -22
98 -31 33 -8 76 -20 95 -25 19 -5 46 -12 59 -15 14 -3 28 -7 32 -10 8 -5 209
-63 240 -69 9 -2 37 -10 62 -19 25 -8 56 -18 69 -20 13 -3 55 -15 93 -26 39
-12 75 -22 80 -24 6 -1 26 -7 45 -14 19 -6 46 -14 60 -16 14 -3 54 -14 90 -25
78 -23 419 -121 440 -126 8 -3 56 -16 105 -30 50 -14 97 -28 105 -30 8 -3 47
-14 85 -25 39 -12 81 -23 94 -26 13 -3 31 -9 40 -13 9 -5 19 -9 24 -9 4 0 38
-9 75 -20 37 -11 81 -23 97 -28 17 -4 32 -8 35 -9 3 -1 19 -5 35 -9 17 -4 41
-12 55 -17 14 -5 34 -11 45 -14 17 -3 88 -24 145 -40 52 -16 259 -75 280 -81
28 -7 115 -32 240 -69 69 -20 132 -39 140 -41 8 -2 40 -10 70 -19 30 -9 62
-17 70 -20 8 -2 26 -8 40 -13 14 -5 27 -9 30 -9 3 0 32 -8 65 -18 49 -14 133
-37 180 -49 6 -2 17 -5 25 -8 17 -7 257 -76 305 -89 85 -22 243 -68 268 -78
15 -6 27 -8 27 -6 0 2 12 0 28 -6 15 -6 57 -19 95 -30 37 -10 100 -28 140 -39
39 -11 83 -23 96 -26 14 -3 28 -7 33 -10 4 -3 18 -7 30 -10 29 -6 39 -9 58
-17 14 -5 258 -75 290 -83 8 -1 110 -31 225 -64 116 -34 221 -64 234 -66 14
-3 28 -7 32 -10 8 -4 198 -60 242 -70 25 -6 38 -10 192 -55 175 -51 345 -100
365 -104 8 -2 73 -21 143 -41 147 -43 145 -31 15 -126 -47 -35 -231 -169 -408
-298 -177 -129 -343 -251 -370 -270 -27 -19 -197 -143 -377 -275 -180 -131
-373 -272 -428 -312 -55 -40 -105 -77 -112 -83 -6 -5 -30 -22 -51 -37 -48 -34
-363 -264 -377 -275 -5 -5 -131 -97 -280 -205 -420 -306 -859 -626 -870 -635
-5 -5 -74 -55 -151 -111 -78 -56 -152 -110 -165 -120 -33 -24 -250 -182 -459
-334 -96 -70 -177 -130 -180 -133 -3 -3 -68 -51 -145 -106 -77 -55 -266 -193
-420 -305 -231 -169 -679 -496 -850 -620 -22 -16 -78 -58 -125 -93 -47 -34
-143 -105 -215 -157 -71 -52 -134 -98 -140 -102 -5 -4 -99 -73 -209 -152 -109
-80 -235 -172 -280 -204 -44 -33 -180 -132 -301 -221 -121 -88 -230 -168 -242
-178 -46 -35 -505 -367 -521 -377 -9 -5 -19 -12 -22 -15 -3 -3 -24 -20 -47
-38 -39 -31 -44 -32 -85 -22 -57 14 -56 14 -181 50 -60 17 -118 34 -130 36
-38 9 -52 12 -54 14 -2 2 -6 3 -10 4 -5 2 -28 8 -53 15 -25 7 -52 14 -61 16
-9 2 -49 13 -89 25 -40 12 -82 24 -94 26 -37 9 -51 12 -53 14 -2 2 -6 3 -10 4
-5 2 -28 8 -53 15 -25 7 -52 15 -60 16 -8 2 -71 20 -140 39 -196 56 -344 98
-360 102 -8 2 -49 13 -90 25 -41 11 -82 22 -90 24 -8 2 -53 15 -100 28 -47 13
-130 37 -185 51 -55 15 -111 31 -125 36 -26 9 -71 19 -80 19 -3 0 -18 5 -35
11 -33 13 -307 89 -344 96 -14 3 -28 7 -33 10 -6 4 -130 39 -173 48 -25 6
-102 28 -125 35 -14 5 -43 14 -65 20 -22 6 -97 27 -166 46 -69 20 -135 37
-145 40 -10 2 -100 27 -199 55 -161 46 -212 60 -320 90 -64 18 -223 62 -275
76 -30 9 -62 17 -70 19 -8 2 -40 11 -70 20 -30 9 -65 18 -78 21 -13 2 -42 11
-65 18 -45 15 -150 45 -179 52 -45 10 -55 13 -80 23 -16 6 -28 8 -28 6 0 -3
-17 2 -37 10 -21 9 -38 15 -38 14 0 0 -20 4 -45 11 -25 7 -52 13 -60 15 -8 2
-26 8 -40 13 -14 5 -29 10 -35 11 -5 1 -28 6 -50 12 -22 6 -44 12 -50 13 -5 1
-37 10 -70 20 -33 10 -67 19 -75 21 -8 2 -58 15 -110 30 -52 15 -106 29 -119
32 -14 2 -29 7 -34 10 -5 3 -41 14 -81 25 -39 10 -78 21 -86 23 -8 2 -31 9
-50 14 -19 5 -118 32 -220 61 -102 28 -196 54 -209 56 -14 3 -28 7 -33 10 -4
3 -16 7 -25 9 -10 2 -74 20 -143 40 -69 20 -136 38 -149 40 -13 2 -35 8 -50
14 -28 11 -134 41 -165 47 -11 2 -40 10 -65 18 -25 8 -59 18 -76 22 -42 10
-32 7 -214 59 -90 26 -171 48 -180 50 -9 2 -65 18 -124 35 -60 17 -118 34
-130 36 -26 6 -37 9 -57 16 -16 6 -93 27 -119 33 -9 2 -65 18 -126 35 -60 17
-117 33 -125 35 -8 2 -49 14 -90 25 -65 19 -152 43 -200 55 -8 3 -96 27 -195
55 -99 28 -204 58 -234 66 -29 8 -95 26 -145 40 -50 14 -102 28 -115 31 -14 2
-28 6 -33 9 -4 3 -16 7 -25 9 -10 2 -76 20 -148 41 -71 20 -134 37 -140 38 -5
1 -37 10 -70 20 -33 10 -64 19 -70 21 -27 6 -78 20 -155 42 -47 14 -89 26 -95
27 -5 2 -30 8 -55 15 -25 7 -52 15 -60 17 -8 1 -64 17 -125 34 -60 18 -117 33
-125 35 -8 2 -64 18 -125 35 -60 17 -117 33 -125 35 -8 2 -87 24 -176 49 -89
26 -172 49 -185 52 -28 6 -38 9 -59 16 -18 7 -169 49 -190 53 -8 2 -64 17
-125 35 -60 17 -119 33 -131 36 -12 2 -40 10 -63 19 -23 8 -45 14 -49 15 -4 0
-20 4 -37 10 -16 5 -41 11 -55 14 -14 2 -47 11 -75 19 -27 9 -75 23 -105 31
-30 8 -88 25 -129 37 -41 11 -81 22 -90 24 -9 3 -50 14 -91 25 -41 11 -86 23
-99 26 -13 3 -34 10 -45 16 -12 6 -22 11 -24 10 -4 -4 -55 9 -84 20 l-28 10
33 22 c17 12 235 170 482 351 248 181 511 373 585 427 74 54 140 102 145 106
6 4 228 167 495 362 267 194 528 385 581 424 53 39 167 123 254 186 87 63 192
140 234 171 42 31 371 271 731 534 1070 781 1554 1134 1688 1233 70 51 152
110 182 132 30 21 114 82 185 135 72 52 215 157 318 233 104 75 223 163 265
194 42 32 84 61 92 65 8 3 17 9 20 13 11 14 351 260 359 260 5 0 11 3 13 8 2
4 21 20 43 37 22 16 45 33 50 38 6 4 143 104 305 222 300 219 528 385 789 577
80 59 151 107 156 107 6 1 42 -8 80 -20z m11785 -8356 l0 -2698 -69 -48 c-38
-27 -77 -55 -87 -63 -11 -8 -57 -42 -104 -76 -47 -34 -202 -147 -345 -251
-143 -105 -309 -226 -370 -270 -60 -45 -141 -104 -180 -132 -38 -28 -101 -74
-140 -102 -78 -57 -928 -678 -966 -706 -13 -9 -107 -78 -209 -152 -102 -74
-194 -141 -205 -149 -111 -81 -429 -314 -494 -361 -46 -33 -212 -154 -370
-270 -158 -115 -298 -217 -311 -226 l-25 -16 0 -1182 c0 -861 3 -1180 11
-1177 10 4 353 247 379 269 6 4 152 110 326 235 174 125 327 235 340 244 13
10 107 77 209 151 329 236 723 519 805 579 129 93 360 260 650 468 149 107
275 198 280 203 6 4 174 125 375 269 201 144 370 266 375 270 26 20 101 75
113 82 9 6 12 -412 12 -2076 l-1 -2083 -130 -95 c-72 -52 -180 -131 -240 -175
-108 -80 -415 -303 -638 -465 -64 -47 -164 -120 -222 -162 -57 -42 -194 -142
-304 -223 -110 -80 -209 -153 -220 -161 -11 -8 -76 -55 -145 -105 -69 -50
-136 -99 -150 -110 -23 -18 -179 -132 -225 -164 -54 -39 -201 -146 -211 -154
-6 -5 -73 -54 -150 -109 -313 -228 -651 -474 -674 -492 -14 -11 -61 -46 -105
-77 -200 -146 -473 -345 -620 -453 -27 -21 -169 -124 -315 -230 -146 -106
-326 -238 -400 -292 -74 -55 -144 -106 -155 -114 -11 -8 -78 -57 -150 -109
-71 -53 -157 -115 -190 -139 -33 -23 -199 -145 -370 -270 -296 -217 -409 -299
-515 -376 -130 -94 -367 -266 -465 -339 -143 -105 -75 -55 -836 -611 -140
-102 -324 -236 -409 -299 l-155 -114 -3 2974 c-1 1635 -5 2976 -10 2980 -4 4
-18 10 -32 13 -14 2 -49 12 -79 21 -30 9 -62 19 -70 21 -19 4 -53 14 -196 54
-60 17 -132 37 -160 45 -27 7 -84 23 -125 35 -41 12 -82 23 -90 25 -8 3 -40
11 -70 20 -54 16 -151 43 -180 51 -8 2 -55 15 -105 29 -49 14 -97 28 -105 30
-8 2 -73 20 -145 41 -71 20 -134 37 -140 39 -5 1 -17 5 -25 8 -13 4 -38 11
-85 23 -5 1 -82 23 -171 48 -89 26 -170 48 -180 51 -10 2 -48 12 -84 23 -61
19 -110 31 -127 33 -5 1 -15 5 -24 10 -9 4 -28 10 -42 13 -15 2 -41 9 -59 15
-45 15 -177 52 -199 56 -11 2 -23 6 -27 9 -5 3 -19 7 -33 10 -23 5 -150 40
-254 71 -28 9 -64 18 -80 21 -15 3 -38 10 -49 16 -12 6 -23 11 -26 10 -7 -2
-69 14 -150 39 -36 10 -76 21 -88 24 -46 10 -58 14 -85 24 -15 6 -38 13 -50
16 -12 2 -38 9 -57 14 -39 11 -177 49 -200 56 -8 2 -46 13 -85 24 -38 11 -135
38 -215 61 -80 23 -158 45 -175 50 -16 4 -73 20 -125 34 -52 15 -106 29 -119
32 -14 3 -28 7 -33 10 -4 3 -16 7 -25 9 -10 2 -52 14 -93 25 -41 12 -79 23
-85 24 -5 2 -30 8 -55 15 -25 8 -49 14 -55 15 -5 2 -35 10 -66 20 -31 9 -65
19 -75 21 -11 2 -44 11 -74 20 -53 15 -78 22 -110 30 -8 2 -15 4 -15 5 0 1 -7
3 -15 5 -8 2 -87 25 -175 50 -88 25 -169 47 -180 49 -11 3 -21 5 -22 5 -2 1
-6 1 -10 2 -5 1 -15 5 -24 10 -9 4 -27 10 -40 13 -13 3 -58 15 -99 26 -41 11
-83 23 -93 25 -9 2 -21 6 -25 9 -5 3 -19 7 -33 10 -24 4 -176 47 -234 65 -52
16 -323 92 -345 96 -11 2 -24 6 -28 9 -5 3 -19 7 -33 10 -13 3 -49 12 -79 21
-30 9 -62 18 -70 20 -8 2 -64 18 -125 35 -60 18 -114 33 -120 35 -5 1 -30 7
-55 14 -25 7 -54 15 -65 17 -11 2 -31 8 -45 14 -23 9 -190 56 -235 65 -11 3
-31 9 -45 14 -14 5 -86 26 -160 46 -74 20 -146 40 -160 45 -14 5 -43 14 -65
19 -22 5 -74 19 -115 31 -41 12 -83 23 -93 25 -10 2 -32 9 -50 14 -18 6 -81
25 -142 42 -60 17 -139 39 -175 50 -36 11 -74 21 -85 24 -11 2 -54 14 -95 26
-94 26 -130 36 -177 49 -21 6 -45 12 -53 15 -8 2 -62 17 -120 33 -58 17 -113
33 -122 37 -17 7 -18 -53 -18 -1164 0 -930 3 -1171 13 -1172 17 -1 30 -4 132
-34 50 -15 122 -35 160 -46 39 -11 75 -21 80 -23 6 -1 30 -8 55 -15 25 -8 50
-14 55 -16 6 -1 17 -4 25 -7 23 -9 203 -59 260 -73 8 -2 15 -4 15 -5 0 -1 7
-3 15 -5 8 -2 40 -11 70 -20 30 -9 62 -18 70 -20 8 -2 40 -11 70 -20 30 -9 62
-17 70 -20 8 -2 27 -8 43 -14 15 -6 27 -8 27 -6 0 3 16 -1 35 -9 19 -8 35 -13
35 -11 0 2 16 -3 35 -11 19 -8 35 -12 35 -9 0 3 17 -1 38 -9 34 -13 84 -27 97
-26 3 0 22 -6 42 -14 32 -12 82 -27 103 -30 3 -1 23 -7 45 -14 60 -18 217 -63
240 -68 11 -2 31 -8 45 -13 24 -9 74 -21 85 -21 3 0 22 -6 42 -14 21 -8 52
-18 68 -22 17 -4 35 -9 40 -10 6 -2 17 -5 25 -7 8 -2 22 -7 30 -10 8 -3 29 -9
45 -13 38 -9 32 -8 140 -39 50 -15 122 -35 160 -46 39 -11 75 -21 80 -23 6 -1
30 -8 55 -15 25 -8 50 -14 55 -16 6 -1 17 -4 25 -7 8 -3 60 -18 115 -33 55
-15 127 -36 160 -46 112 -33 210 -61 233 -65 13 -3 42 -11 65 -18 23 -8 94
-29 157 -46 63 -17 134 -38 157 -46 23 -7 52 -15 65 -18 13 -2 68 -18 123 -34
55 -17 156 -46 225 -65 69 -20 163 -46 210 -60 47 -13 94 -27 105 -30 11 -2
85 -23 165 -46 80 -23 170 -49 200 -58 30 -8 75 -21 100 -29 25 -8 110 -33
190 -55 193 -55 214 -61 365 -104 72 -20 139 -39 150 -41 40 -10 50 -12 53
-13 1 -1 4 -1 7 -1 2 -1 20 -7 40 -16 19 -8 35 -12 35 -9 0 4 6 3 13 -2 6 -4
17 -9 22 -10 6 -1 28 -7 50 -13 22 -6 47 -13 55 -15 8 -2 17 -4 20 -6 3 -1 10
-3 15 -4 6 -2 12 -4 15 -5 3 -1 12 -3 20 -5 8 -2 71 -20 140 -40 69 -20 182
-52 253 -72 l127 -36 0 -1850 0 -1849 -27 7 c-16 4 -35 9 -43 11 -8 2 -49 13
-90 25 -80 22 -102 28 -195 54 -33 9 -91 25 -129 36 -38 12 -76 22 -85 25 -16
3 -82 21 -111 29 -8 2 -53 15 -100 28 -47 14 -98 28 -115 33 -42 11 -45 11
-47 14 -2 1 -10 3 -18 5 -8 2 -42 11 -75 20 -33 9 -67 18 -75 20 -8 2 -49 14
-90 25 -41 12 -86 24 -99 26 -14 3 -28 7 -33 10 -4 3 -16 7 -25 9 -10 2 -67
18 -128 35 -60 18 -117 33 -126 35 -9 2 -49 13 -89 25 -40 12 -80 23 -89 25
-9 2 -50 14 -91 25 -41 12 -86 24 -99 26 -14 3 -28 7 -33 10 -4 3 -16 7 -25 9
-10 2 -92 25 -183 50 -164 46 -234 66 -285 79 -5 1 -37 10 -70 20 -33 10 -67
20 -75 22 -8 2 -49 13 -90 24 -41 11 -82 23 -90 25 -8 2 -127 36 -265 74 -137
39 -263 74 -279 76 -16 3 -33 8 -38 11 -4 3 -16 7 -25 9 -10 2 -108 29 -218
60 -110 31 -209 59 -220 61 -27 7 -32 8 -96 28 -50 15 -77 22 -116 30 -7 1
-16 5 -19 9 -4 4 -15 7 -25 7 -9 0 -39 7 -65 15 -59 17 -277 79 -319 90 -16 5
-34 9 -40 11 -5 2 -19 5 -30 8 -11 2 -49 14 -85 25 -36 11 -80 23 -99 26 -19
3 -38 8 -43 11 -4 3 -16 7 -25 9 -10 2 -90 25 -178 50 -88 25 -169 47 -180 50
-28 6 -226 62 -305 86 -36 10 -76 21 -89 24 -14 2 -45 11 -70 19 -40 12 -78
23 -116 31 -5 2 -37 11 -70 21 -33 10 -64 19 -70 20 -5 1 -93 25 -195 54 -102
28 -193 53 -203 55 -9 2 -21 6 -25 9 -5 3 -19 7 -33 10 -13 3 -58 14 -99 26
-41 12 -82 23 -90 25 -8 2 -80 22 -160 45 -80 23 -152 43 -160 46 -8 2 -33 8
-55 14 -22 6 -47 12 -55 14 -8 3 -64 18 -125 36 -60 17 -114 33 -120 34 -5 1
-30 8 -55 15 -25 7 -52 15 -60 17 -8 2 -40 11 -70 19 -30 9 -63 18 -73 21 -38
9 -54 14 -107 29 -30 9 -77 23 -105 30 -27 7 -84 23 -125 34 -74 22 -215 61
-235 65 -13 3 -92 26 -125 36 -28 9 -54 16 -235 66 -71 19 -161 44 -198 56
-37 11 -73 21 -80 22 -29 6 -176 48 -269 76 -16 5 -28 7 -28 4 0 -3 -8 0 -17
5 -15 7 -230 68 -268 75 -5 1 -14 4 -20 7 -5 4 -43 14 -82 24 l-73 17 0 6044
0 6044 32 -5 c17 -3 35 -8 40 -11 4 -3 16 -7 25 -9 10 -2 68 -18 128 -35 61
-18 117 -33 126 -35 9 -2 37 -10 62 -19 25 -8 56 -18 69 -20 13 -3 57 -14 98
-26 41 -12 82 -24 90 -26 37 -9 95 -25 230 -64 80 -22 152 -43 160 -45 8 -2
64 -18 123 -35 60 -17 118 -34 130 -36 12 -3 27 -6 32 -7 6 -2 15 -5 20 -8 8
-5 99 -29 125 -34 3 0 21 -6 41 -13 20 -7 45 -14 55 -16 11 -2 39 -10 64 -17
25 -7 50 -14 55 -15 6 -2 42 -12 80 -23 39 -12 79 -23 90 -26 11 -2 45 -11 75
-20 53 -16 109 -32 140 -39 8 -3 65 -18 125 -36 61 -17 117 -33 125 -35 8 -2
65 -18 125 -35 61 -18 119 -34 130 -36 26 -7 37 -10 55 -17 14 -5 364 -103
400 -112 8 -2 65 -18 125 -35 61 -17 117 -33 125 -35 8 -2 27 -8 43 -14 15 -6
27 -9 27 -6 0 2 25 -5 55 -15 30 -10 55 -17 55 -14 0 3 8 0 18 -5 11 -6 30
-12 44 -15 13 -2 45 -11 71 -20 25 -8 57 -17 69 -20 13 -2 57 -14 97 -26 41
-12 83 -24 95 -26 12 -2 32 -8 46 -13 23 -8 76 -22 82 -21 2 0 36 -11 76 -24
39 -14 72 -23 72 -21 0 2 21 -4 48 -12 38 -12 174 -50 242 -69 14 -3 184 -52
205 -58 6 -2 24 -6 40 -11 17 -4 68 -19 115 -32 47 -14 90 -26 95 -27 6 -2 30
-8 55 -15 25 -7 52 -15 60 -16 8 -2 44 -13 80 -24 36 -11 77 -22 90 -25 14 -2
26 -5 28 -5 1 -1 3 0 5 1 1 1 11 -4 23 -10 11 -6 32 -13 45 -16 13 -2 130 -34
259 -71 129 -37 244 -69 255 -71 11 -2 31 -8 45 -13 14 -5 39 -13 55 -17 17
-4 35 -8 40 -10 22 -5 193 -55 244 -70 29 -9 65 -18 79 -20 14 -3 29 -7 33 -9
7 -5 229 -67 283 -80 10 -2 33 -9 51 -15 18 -6 41 -13 51 -15 25 -6 141 -38
229 -65 39 -11 79 -22 90 -25 11 -2 61 -16 110 -30 50 -14 97 -28 105 -30 14
-3 476 -133 550 -155 99 -28 365 -103 379 -105 9 -2 16 -4 16 -5 0 -1 7 -3 15
-5 8 -2 58 -16 110 -31 52 -14 100 -27 105 -29 6 -1 17 -5 25 -8 12 -5 252
-72 330 -92 8 -2 49 -14 90 -25 41 -12 82 -24 90 -26 8 -2 40 -11 70 -20 30
-9 71 -20 90 -25 19 -5 42 -11 50 -14 8 -2 65 -18 125 -35 61 -18 118 -33 128
-35 9 -2 21 -6 25 -9 5 -3 19 -7 33 -10 13 -3 67 -17 119 -32 52 -14 100 -27
105 -29 6 -1 17 -5 25 -8 13 -5 53 -15 85 -22 6 -2 43 -13 84 -25 41 -12 83
-24 95 -26 28 -7 31 -8 111 -31 68 -20 122 -34 127 -33 2 1 20 -6 41 -15 20
-8 37 -13 37 -10 0 2 12 0 28 -6 15 -6 34 -12 42 -14 8 -2 56 -16 105 -30 50
-14 99 -28 109 -30 10 -2 33 -9 51 -15 18 -6 41 -12 51 -15 10 -2 69 -18 129
-35 61 -18 117 -34 125 -36 31 -7 88 -23 175 -49 50 -14 122 -34 160 -44 39
-11 111 -31 160 -45 50 -14 108 -31 130 -37 22 -6 51 -15 65 -19 14 -5 39 -12
55 -16 17 -4 35 -8 40 -10 92 -27 124 -36 144 -40 14 -3 28 -7 32 -9 6 -4 59
33 339 239 67 49 445 325 495 362 218 158 351 254 362 264 7 6 27 20 45 33 19
12 40 28 48 35 8 7 67 50 130 96 63 45 210 151 325 236 116 84 334 243 485
353 151 110 279 204 285 209 13 10 68 50 220 161 66 48 203 148 305 222 102
74 239 174 305 222 66 48 125 91 130 96 6 4 159 116 340 248 182 132 359 262
395 288 36 26 133 97 215 157 83 60 177 129 211 154 96 71 276 202 434 316 80
58 156 114 170 124 38 30 339 249 390 284 25 17 47 33 50 36 3 3 23 18 45 35
22 16 45 33 50 37 6 5 71 52 145 106 291 211 585 426 590 431 3 3 13 11 22 16
10 6 89 62 175 126 87 64 250 183 363 266 113 82 337 246 498 364 347 253 436
318 440 319 1 0 2 -1214 2 -2697z"/>
</g>
</svg>
